<svg width="34" height="34" viewBox="0 0 34 34" fill="none" xmlns="http://www.w3.org/2000/svg">
<rect width="34" height="34" rx="3" fill="#F2F2F2"/>
<path fill-rule="evenodd" clip-rule="evenodd" d="M11.5143 12.7144C11.6501 12.7161 11.7799 12.7709 11.876 12.867C11.972 12.963 12.0268 13.0928 12.0286 13.2286V20.7715C12.0268 20.9073 11.972 21.0371 11.876 21.1332C11.7799 21.2293 11.6501 21.284 11.5143 21.2858C11.3784 21.284 11.2487 21.2293 11.1526 21.1332C11.0565 21.0371 11.0018 20.9073 11 20.7715V13.2286C11.0018 13.0928 11.0565 12.963 11.1526 12.867C11.2487 12.7709 11.3784 12.7161 11.5143 12.7144Z" fill="black"/>
<path fill-rule="evenodd" clip-rule="evenodd" d="M14.257 12.7144C14.3928 12.7161 14.5226 12.7709 14.6187 12.867C14.7147 12.963 14.7695 13.0928 14.7712 13.2286V20.7715C14.7695 20.9073 14.7147 21.0371 14.6187 21.1332C14.5226 21.2293 14.3928 21.284 14.257 21.2858C14.1211 21.284 13.9913 21.2293 13.8953 21.1332C13.7992 21.0371 13.7445 20.9073 13.7427 20.7715V13.2286C13.7445 13.0928 13.7992 12.963 13.8953 12.867C13.9913 12.7709 14.1211 12.7161 14.257 12.7144Z" fill="black"/>
<path fill-rule="evenodd" clip-rule="evenodd" d="M17.0001 12.7144C17.136 12.7161 17.2658 12.7709 17.3618 12.867C17.4579 12.963 17.5126 13.0928 17.5144 13.2286V20.7715C17.5126 20.9073 17.4579 21.0371 17.3618 21.1332C17.2658 21.2293 17.136 21.284 17.0001 21.2858C16.8643 21.284 16.7345 21.2293 16.6384 21.1332C16.5424 21.0371 16.4876 20.9073 16.4858 20.7715V13.2286C16.4876 13.0928 16.5424 12.963 16.6384 12.867C16.7345 12.7709 16.8643 12.7161 17.0001 12.7144Z" fill="black"/>
<path fill-rule="evenodd" clip-rule="evenodd" d="M19.7428 12.7144C19.8786 12.7161 20.0084 12.7709 20.1045 12.867C20.2006 12.963 20.2553 13.0928 20.2571 13.2286V20.7715C20.2553 20.9073 20.2006 21.0371 20.1045 21.1332C20.0084 21.2293 19.8786 21.284 19.7428 21.2858C19.607 21.284 19.4772 21.2293 19.3811 21.1332C19.285 21.0371 19.2303 20.9073 19.2285 20.7715V13.2286C19.2303 13.0928 19.285 12.963 19.3811 12.867C19.4772 12.7709 19.607 12.7161 19.7428 12.7144Z" fill="black"/>
<path fill-rule="evenodd" clip-rule="evenodd" d="M22.4855 12.7144C22.6213 12.7161 22.7511 12.7709 22.8472 12.867C22.9432 12.963 22.998 13.0928 22.9998 13.2286V20.7715C22.998 20.9073 22.9432 21.0371 22.8472 21.1332C22.7511 21.2293 22.6213 21.284 22.4855 21.2858C22.3496 21.284 22.2199 21.2293 22.1238 21.1332C22.0277 21.0371 21.973 20.9073 21.9712 20.7715V13.2286C21.973 13.0928 22.0277 12.963 22.1238 12.867C22.2199 12.7709 22.3496 12.7161 22.4855 12.7144Z" fill="black"/>
</svg>
