<svg width="34" height="34" viewBox="0 0 34 34" fill="none" xmlns="http://www.w3.org/2000/svg">
<rect width="34" height="34" rx="3" fill="#F2F2F2"/>
<g clip-path="url(#clip0_3_2691)">
<path fill-rule="evenodd" clip-rule="evenodd" d="M11.6667 11.4443C11.8428 11.4466 12.011 11.5176 12.1355 11.6421C12.2601 11.7667 12.331 11.9349 12.3333 12.111V21.8888C12.331 22.0649 12.2601 22.2331 12.1355 22.3576C12.011 22.4822 11.8428 22.5531 11.6667 22.5554C11.4906 22.5531 11.3223 22.4822 11.1978 22.3576C11.0733 22.2331 11.0023 22.0649 11 21.8888V12.111C11.0023 11.9349 11.0733 11.7667 11.1978 11.6421C11.3223 11.5176 11.4906 11.4466 11.6667 11.4443Z" fill="black"/>
<path fill-rule="evenodd" clip-rule="evenodd" d="M15.2223 11.4443C15.3984 11.4466 15.5667 11.5176 15.6912 11.6421C15.8157 11.7667 15.8867 11.9349 15.889 12.111V21.8888C15.8867 22.0649 15.8157 22.2331 15.6912 22.3576C15.5667 22.4822 15.3984 22.5531 15.2223 22.5554C15.0462 22.5531 14.878 22.4822 14.7535 22.3576C14.6289 22.2331 14.558 22.0649 14.5557 21.8888V12.111C14.558 11.9349 14.6289 11.7667 14.7535 11.6421C14.878 11.5176 15.0462 11.4466 15.2223 11.4443Z" fill="black"/>
<path fill-rule="evenodd" clip-rule="evenodd" d="M18.778 11.4443C18.9541 11.4466 19.1223 11.5176 19.2469 11.6421C19.3714 11.7667 19.4424 11.9349 19.4447 12.111V21.8888C19.4424 22.0649 19.3714 22.2331 19.2469 22.3576C19.1223 22.4822 18.9541 22.5531 18.778 22.5554C18.6019 22.5531 18.4337 22.4822 18.3091 22.3576C18.1846 22.2331 18.1136 22.0649 18.1113 21.8888V12.111C18.1136 11.9349 18.1846 11.7667 18.3091 11.6421C18.4337 11.5176 18.6019 11.4466 18.778 11.4443Z" fill="black"/>
<path fill-rule="evenodd" clip-rule="evenodd" d="M22.3332 11.4443C22.5093 11.4466 22.6775 11.5176 22.802 11.6421C22.9266 11.7667 22.9975 11.9349 22.9998 12.111V21.8888C22.9975 22.0649 22.9266 22.2331 22.802 22.3576C22.6775 22.4822 22.5093 22.5531 22.3332 22.5554C22.1571 22.5531 21.9888 22.4822 21.8643 22.3576C21.7398 22.2331 21.6688 22.0649 21.6665 21.8888V12.111C21.6688 11.9349 21.7398 11.7667 21.8643 11.6421C21.9888 11.5176 22.1571 11.4466 22.3332 11.4443Z" fill="black"/>
</g>
<defs>
<clipPath id="clip0_3_2691">
<rect width="12" height="12" fill="white" transform="translate(11 11)"/>
</clipPath>
</defs>
</svg>
