<svg width="34" height="34" viewBox="0 0 34 34" fill="none" xmlns="http://www.w3.org/2000/svg">
<rect width="34" height="34" rx="3" fill="#F2F2F2"/>
<path fill-rule="evenodd" clip-rule="evenodd" d="M13.1599 11C13.3501 11.0025 13.5318 11.0791 13.6663 11.2136C13.8008 11.3481 13.8775 11.5298 13.8799 11.72V22.28C13.8775 22.4702 13.8008 22.6519 13.6663 22.7864C13.5318 22.9209 13.3501 22.9975 13.1599 23C12.9698 22.9975 12.7881 22.9209 12.6536 22.7864C12.5191 22.6519 12.4424 22.4702 12.4399 22.28V11.72C12.4424 11.5298 12.5191 11.3481 12.6536 11.2136C12.7881 11.0791 12.9698 11.0025 13.1599 11Z" fill="black"/>
<path fill-rule="evenodd" clip-rule="evenodd" d="M16.9998 11C17.19 11.0025 17.3717 11.0791 17.5062 11.2136C17.6406 11.3481 17.7173 11.5298 17.7198 11.72V22.28C17.7173 22.4702 17.6406 22.6519 17.5062 22.7864C17.3717 22.9209 17.19 22.9975 16.9998 23C16.8096 22.9975 16.6279 22.9209 16.4934 22.7864C16.3589 22.6519 16.2823 22.4702 16.2798 22.28V11.72C16.2823 11.5298 16.3589 11.3481 16.4934 11.2136C16.6279 11.0791 16.8096 11.0025 16.9998 11Z" fill="black"/>
<path fill-rule="evenodd" clip-rule="evenodd" d="M20.8401 11C21.0303 11.0025 21.212 11.0791 21.3465 11.2136C21.481 11.3481 21.5576 11.5298 21.5601 11.72V22.28C21.5576 22.4702 21.481 22.6519 21.3465 22.7864C21.212 22.9209 21.0303 22.9975 20.8401 23C20.6499 22.9975 20.4682 22.9209 20.3337 22.7864C20.1993 22.6519 20.1226 22.4702 20.1201 22.28V11.72C20.1226 11.5298 20.1993 11.3481 20.3337 11.2136C20.4682 11.0791 20.6499 11.0025 20.8401 11Z" fill="black"/>
</svg>
