<svg width="34" height="34" viewBox="0 0 34 34" fill="none" xmlns="http://www.w3.org/2000/svg">
<rect width="34" height="34" rx="3" fill="#F2F2F2"/>
<path fill-rule="evenodd" clip-rule="evenodd" d="M23 13.1599C22.9975 13.3501 22.9209 13.5318 22.7864 13.6663C22.6519 13.8008 22.4702 13.8775 22.28 13.8799H11.72C11.5298 13.8775 11.3481 13.8008 11.2136 13.6663C11.0791 13.5318 11.0025 13.3501 11 13.1599C11.0025 12.9698 11.0791 12.7881 11.2136 12.6536C11.3481 12.5191 11.5298 12.4424 11.72 12.4399H22.28C22.4702 12.4424 22.6519 12.5191 22.7864 12.6536C22.9209 12.7881 22.9975 12.9698 23 13.1599Z" fill="black"/>
<path fill-rule="evenodd" clip-rule="evenodd" d="M23 17C22.9975 17.1902 22.9209 17.3719 22.7864 17.5064C22.6519 17.6409 22.4702 17.7175 22.28 17.72H11.72C11.5298 17.7175 11.3481 17.6409 11.2136 17.5064C11.0791 17.3719 11.0025 17.1902 11 17C11.0025 16.8098 11.0791 16.6282 11.2136 16.4937C11.3481 16.3592 11.5298 16.2825 11.72 16.28H22.28C22.4702 16.2825 22.6519 16.3592 22.7864 16.4937C22.9209 16.6282 22.9975 16.8098 23 17Z" fill="black"/>
<path fill-rule="evenodd" clip-rule="evenodd" d="M23 20.8399C22.9975 21.0301 22.9209 21.2117 22.7864 21.3462C22.6519 21.4807 22.4702 21.5574 22.28 21.5599H11.72C11.5298 21.5574 11.3481 21.4807 11.2136 21.3462C11.0791 21.2117 11.0025 21.0301 11 20.8399C11.0025 20.6497 11.0791 20.468 11.2136 20.3335C11.3481 20.199 11.5298 20.1224 11.72 20.1199H22.28C22.4702 20.1224 22.6519 20.199 22.7864 20.3335C22.9209 20.468 22.9975 20.6497 23 20.8399Z" fill="black"/>
</svg>
