<svg width="34" height="34" viewBox="0 0 34 34" fill="none" xmlns="http://www.w3.org/2000/svg">
<rect width="34" height="34" rx="3" fill="#F2F2F2"/>
<path fill-rule="evenodd" clip-rule="evenodd" d="M15.0799 11C15.27 11.0025 15.4517 11.0791 15.5862 11.2136C15.7207 11.3481 15.7974 11.5298 15.7999 11.72V22.28C15.7974 22.4702 15.7207 22.6519 15.5862 22.7864C15.4517 22.9209 15.27 22.9975 15.0799 23C14.8897 22.9975 14.708 22.9209 14.5735 22.7864C14.439 22.6519 14.3623 22.4702 14.3599 22.28V11.72C14.3623 11.5298 14.439 11.3481 14.5735 11.2136C14.708 11.0791 14.8897 11.0025 15.0799 11Z" fill="black"/>
<path fill-rule="evenodd" clip-rule="evenodd" d="M18.9197 11C19.1099 11.0025 19.2916 11.0791 19.4261 11.2136C19.5606 11.3481 19.6372 11.5298 19.6397 11.72V22.28C19.6372 22.4702 19.5606 22.6519 19.4261 22.7864C19.2916 22.9209 19.1099 22.9975 18.9197 23C18.7295 22.9975 18.5478 22.9209 18.4133 22.7864C18.2788 22.6519 18.2022 22.4702 18.1997 22.28V11.72C18.2022 11.5298 18.2788 11.3481 18.4133 11.2136C18.5478 11.0791 18.7295 11.0025 18.9197 11Z" fill="black"/>
</svg>
