<svg width="166" height="39" viewBox="0 0 166 39" fill="none" xmlns="http://www.w3.org/2000/svg">
<path d="M-8.57562e-05 37.1799V34.7879L4.78391 33.6439V4.31593L-8.57562e-05 3.17193V0.779929H26.8319V11.4399H24.4399L22.2559 4.26393L11.1799 3.84793V17.1599L22.4119 16.2239V20.8519L11.1799 19.9679V33.6439L17.0039 34.7879V37.1799H-8.57562e-05ZM24.5122 37.1799V34.7879L29.4002 33.6439L42.0362 0.519929H45.7802L57.6362 33.6959L62.4202 34.7879V37.1799H47.1322V34.7879L50.9802 33.9039L48.4842 26.8839H35.7442L33.0402 33.7479L37.6162 34.7879V37.1799H24.5122ZM36.8882 23.8159H47.3402L42.2442 9.61993L36.8882 23.8159ZM65.4777 9.09993C65.4777 6.2226 66.6217 3.9866 68.9097 2.39193C71.1977 0.797263 74.1617 -7.00951e-05 77.8017 -7.00951e-05C81.6843 -7.00951e-05 85.2377 0.398597 88.4617 1.19593L88.2017 11.1799H85.8617L83.2617 3.69193C81.8057 3.4146 80.3323 3.27593 78.8417 3.27593C76.4497 3.27593 74.5603 3.74393 73.1737 4.67993C71.8217 5.61593 71.1457 6.91593 71.1457 8.57993C71.1457 10.0013 71.7523 11.1973 72.9657 12.1679C74.2137 13.1039 76.363 14.2133 79.4137 15.4959C81.043 16.1546 82.3777 16.7786 83.4177 17.3679C84.4923 17.9226 85.6363 18.6679 86.8497 19.6039C88.063 20.5399 88.9643 21.6666 89.5537 22.9839C90.1777 24.3013 90.4897 25.7746 90.4897 27.4039C90.4897 30.8706 89.207 33.5399 86.6417 35.4119C84.2497 37.1453 81.251 37.9946 77.6457 37.9599C76.675 37.9599 75.063 37.8733 72.8097 37.6999C70.591 37.5266 68.1817 37.0586 65.5817 36.2959V26.0519H67.9737L70.6257 33.8519C72.0817 34.3026 73.7803 34.5279 75.7217 34.5279C78.4257 34.5279 80.6097 34.0599 82.2737 33.1239C83.9377 32.1533 84.7697 30.6453 84.7697 28.5999C84.7697 27.0399 84.0243 25.6879 82.5337 24.5439C81.043 23.3999 78.859 22.2039 75.9817 20.9559C72.0297 19.2573 69.291 17.6106 67.7657 16.0159C66.2403 14.4213 65.4777 12.1159 65.4777 9.09993ZM114.403 -7.00951e-05C118.424 -7.00951e-05 121.804 0.606597 124.543 1.81993V11.6479H122.151L119.759 3.95193C118.407 3.63993 116.847 3.48393 115.079 3.48393C106.447 3.48393 102.131 8.64926 102.131 18.9799C102.131 29.3106 106.1 34.4759 114.039 34.4759C115.217 34.4759 116.275 34.4413 117.211 34.3719C118.147 34.3026 118.996 34.1986 119.759 34.0599L122.775 25.8439H125.167L124.803 35.6719C124.317 35.9493 123.624 36.2266 122.723 36.5039C121.821 36.7813 120.833 37.0239 119.759 37.2319C118.719 37.4399 117.627 37.6133 116.483 37.7519C115.373 37.8906 114.351 37.9599 113.415 37.9599C107.556 37.9599 103.119 36.3306 100.103 33.0719C97.0868 29.8133 95.5788 25.1159 95.5788 18.9799C95.5788 12.8439 97.1388 8.1466 100.259 4.88793C103.413 1.62926 108.128 -7.00951e-05 114.403 -7.00951e-05ZM147.885 -7.00951e-05C150.693 -7.00951e-05 153.172 0.46793 155.321 1.40393C157.471 2.33993 159.291 3.63993 160.781 5.30393C162.272 6.96793 163.399 8.96126 164.161 11.2839C164.924 13.6066 165.305 16.1546 165.305 18.9279C165.305 21.7359 164.924 24.3013 164.161 26.6239C163.433 28.9466 162.324 30.9573 160.833 32.6559C159.377 34.3199 157.557 35.6199 155.373 36.5559C153.224 37.4919 150.728 37.9599 147.885 37.9599C144.869 37.9599 142.252 37.4573 140.033 36.4519C137.849 35.4466 136.047 34.0946 134.625 32.3959C133.204 30.6626 132.147 28.6346 131.453 26.3119C130.795 23.9893 130.465 21.4933 130.465 18.8239C130.465 16.2239 130.812 13.7973 131.505 11.5439C132.199 9.25593 133.256 7.2626 134.677 5.56393C136.099 3.8306 137.901 2.4786 140.085 1.50793C142.304 0.502596 144.904 -7.00951e-05 147.885 -7.00951e-05ZM147.885 3.06793C144.349 3.06793 141.663 4.5586 139.825 7.53993C138.023 10.4866 137.121 14.2999 137.121 18.9799C137.121 23.9373 138.075 27.8373 139.981 30.6799C141.923 33.4879 144.557 34.8919 147.885 34.8919C151.213 34.8919 153.831 33.4879 155.737 30.6799C157.679 27.8373 158.649 23.9373 158.649 18.9799C158.649 14.2999 157.731 10.4866 155.893 7.53993C154.091 4.5586 151.421 3.06793 147.885 3.06793Z" fill="#484848"/>
</svg>
