<svg width="57" height="57" viewBox="0 0 57 57" fill="none" xmlns="http://www.w3.org/2000/svg">
<rect x="0.5" y="0.5" width="56" height="56" rx="28" stroke="black"/>
<path fill-rule="evenodd" clip-rule="evenodd" d="M28.5 42C28.2496 42 28.0094 41.9022 27.8323 41.728C27.6552 41.5539 27.5557 41.3177 27.5557 41.0715L27.5557 19.1716L21.6141 25.0157C21.4368 25.19 21.1963 25.288 20.9455 25.288C20.6947 25.288 20.4542 25.19 20.2769 25.0157C20.0996 24.8413 20 24.6048 20 24.3583C20 24.1117 20.0996 23.8752 20.2769 23.7009L27.8314 16.2728C27.9191 16.1863 28.0233 16.1177 28.1381 16.0709C28.2528 16.0241 28.3758 16 28.5 16C28.6242 16 28.7472 16.0241 28.8619 16.0709C28.9766 16.1177 29.0809 16.1863 29.1686 16.2728L36.7231 23.7009C36.9004 23.8752 37 24.1117 37 24.3583C37 24.6048 36.9004 24.8413 36.7231 25.0157C36.5458 25.19 36.3053 25.288 36.0545 25.288C35.8037 25.288 35.5632 25.19 35.3859 25.0157L29.4443 19.1716L29.4443 41.0715C29.4443 41.3177 29.3448 41.5539 29.1677 41.728C28.9906 41.9022 28.7504 42 28.5 42Z" fill="black"/>
</svg>
