<svg width="20" height="20" viewBox="0 0 20 20" fill="none" xmlns="http://www.w3.org/2000/svg">
<g clip-path="url(#clip0_6_195)">
<path d="M13.5 11.875C12.3789 11.875 11.8398 12.5 10 12.5C8.16016 12.5 7.625 11.875 6.5 11.875C3.60156 11.875 1.25 14.2266 1.25 17.125V18.125C1.25 19.1602 2.08984 20 3.125 20H16.875C17.9102 20 18.75 19.1602 18.75 18.125V17.125C18.75 14.2266 16.3984 11.875 13.5 11.875ZM16.875 18.125H3.125V17.125C3.125 15.2656 4.64062 13.75 6.5 13.75C7.07031 13.75 7.99609 14.375 10 14.375C12.0195 14.375 12.9258 13.75 13.5 13.75C15.3594 13.75 16.875 15.2656 16.875 17.125V18.125ZM10 11.25C13.1055 11.25 15.625 8.73047 15.625 5.625C15.625 2.51953 13.1055 0 10 0C6.89453 0 4.375 2.51953 4.375 5.625C4.375 8.73047 6.89453 11.25 10 11.25ZM10 1.875C12.0664 1.875 13.75 3.55859 13.75 5.625C13.75 7.69141 12.0664 9.375 10 9.375C7.93359 9.375 6.25 7.69141 6.25 5.625C6.25 3.55859 7.93359 1.875 10 1.875Z" fill="#484848" stroke="#484848" stroke-width="0.0390625"/>
</g>
<defs>
<clipPath id="clip0_6_195">
<rect width="20" height="20" fill="white"/>
</clipPath>
</defs>
</svg>
