<svg width="20" height="20" viewBox="0 0 20 20" fill="none" xmlns="http://www.w3.org/2000/svg">
<g clip-path="url(#clip0_6_201)">
<path d="M15 5C15 2.24297 12.757 0 10 0C7.24297 0 5 2.24297 5 5H1.25V16.875C1.25 18.6009 2.6491 20 4.375 20H15.625C17.3509 20 18.75 18.6009 18.75 16.875V5H15ZM10 1.875C11.7231 1.875 13.125 3.27688 13.125 5H6.875C6.875 3.27688 8.27688 1.875 10 1.875ZM16.875 16.875C16.875 17.5643 16.3143 18.125 15.625 18.125H4.375C3.68574 18.125 3.125 17.5643 3.125 16.875V6.875H5V8.4375C5 8.95527 5.41973 9.375 5.9375 9.375C6.45527 9.375 6.875 8.95527 6.875 8.4375V6.875H13.125V8.4375C13.125 8.95527 13.5447 9.375 14.0625 9.375C14.5803 9.375 15 8.95527 15 8.4375V6.875H16.875V16.875Z" fill="#484848" stroke="#484848" stroke-width="0.0390625"/>
</g>
<defs>
<clipPath id="clip0_6_201">
<rect width="20" height="20" fill="white"/>
</clipPath>
</defs>
</svg>
