<svg width="20" height="20" viewBox="0 0 20 20" fill="none" xmlns="http://www.w3.org/2000/svg">
<g clip-path="url(#clip0_6_144)">
<path d="M15 12.5C16.0416 12.5 16.9271 12.8646 17.6562 13.5938C18.3854 14.3229 18.75 15.2084 18.75 16.25C18.75 17.2916 18.3854 18.1771 17.6562 18.9062C16.9271 19.6354 16.0416 20 15 20C13.9584 20 13.0729 19.6354 12.3438 18.9062C11.6146 18.1771 11.25 17.2916 11.25 16.25C11.25 15.8594 11.3021 15.4817 11.4062 15.1172L7.57812 12.7344C6.84896 13.4115 5.98959 13.75 5 13.75C3.95834 13.75 3.07291 13.3854 2.34375 12.6562C1.61458 11.9271 1.25 11.0417 1.25 10C1.25 8.95834 1.61458 8.07291 2.34375 7.34375C3.07291 6.61459 3.95834 6.25 5 6.25C5.98959 6.25 6.84896 6.58854 7.57812 7.26562L11.4062 4.88281C11.3021 4.51823 11.25 4.14062 11.25 3.75C11.25 2.70834 11.6146 1.82291 12.3438 1.09375C13.0729 0.364584 13.9584 0 15 0C16.0416 0 16.9271 0.364584 17.6562 1.09375C18.3854 1.82291 18.75 2.70834 18.75 3.75C18.75 4.79166 18.3854 5.67709 17.6562 6.40625C16.9271 7.13541 16.0416 7.5 15 7.5C14.0104 7.5 13.151 7.16146 12.4219 6.48438L8.59375 8.86719C8.82812 9.6224 8.82812 10.3776 8.59375 11.1328L12.4219 13.5156C13.151 12.8385 14.0104 12.5 15 12.5ZM16.3281 2.42188C15.9635 2.05729 15.5209 1.875 15 1.875C14.4791 1.875 14.0365 2.05729 13.6719 2.42188C13.3073 2.78646 13.125 3.22916 13.125 3.75C13.125 4.27084 13.3073 4.71354 13.6719 5.07812C14.0365 5.44271 14.4791 5.625 15 5.625C15.5209 5.625 15.9635 5.44271 16.3281 5.07812C16.6927 4.71354 16.875 4.27084 16.875 3.75C16.875 3.22916 16.6927 2.78646 16.3281 2.42188ZM3.67188 11.3281C4.03646 11.6927 4.47916 11.875 5 11.875C5.52084 11.875 5.96354 11.6927 6.32812 11.3281C6.69271 10.9635 6.875 10.5208 6.875 10C6.875 9.47916 6.69271 9.03646 6.32812 8.67188C5.96354 8.30729 5.52084 8.125 5 8.125C4.47916 8.125 4.03646 8.30729 3.67188 8.67188C3.30729 9.03646 3.125 9.47916 3.125 10C3.125 10.5208 3.30729 10.9635 3.67188 11.3281ZM13.6719 17.5781C14.0365 17.9428 14.4791 18.125 15 18.125C15.5209 18.125 15.9635 17.9428 16.3281 17.5781C16.6927 17.2135 16.875 16.7709 16.875 16.25C16.875 15.7291 16.6927 15.2865 16.3281 14.9219C15.9635 14.5573 15.5209 14.375 15 14.375C14.4791 14.375 14.0365 14.5573 13.6719 14.9219C13.3073 15.2865 13.125 15.7291 13.125 16.25C13.125 16.7709 13.3073 17.2135 13.6719 17.5781Z" fill="black"/>
</g>
<defs>
<clipPath id="clip0_6_144">
<rect width="20" height="20" fill="white"/>
</clipPath>
</defs>
</svg>
