<svg width="20" height="20" viewBox="0 0 20 20" fill="none" xmlns="http://www.w3.org/2000/svg">
<g clip-path="url(#clip0_6_150)">
<path d="M8.75 8C8.8875 8 9 7.8875 9 7.75V7.25C9 7.1125 8.8875 7 8.75 7H1.25C1.1125 7 1 7.1125 1 7.25V7.75C1 7.8875 1.1125 8 1.25 8H8.75ZM19.75 14H19V10.6219C19 10.0969 18.7875 9.58125 18.4125 9.20937L15.7906 6.5875C15.4219 6.2125 14.9062 6 14.3781 6H13V4.45625C13 3.65312 12.3063 3 11.4563 3H3.54375C2.69375 3 2 3.65312 2 4.45625V5H0.25C0.1125 5 0 5.1125 0 5.25V5.75C0 5.8875 0.1125 6 0.25 6H7.75C7.8875 6 8 5.8875 8 5.75V5.25C8 5.1125 7.8875 5 7.75 5H3V4.45625C3 4.20312 3.24375 4 3.54375 4H11.4563C11.7563 4 12 4.20312 12 4.45625V14H6.4875C6.03125 13.3969 5.3125 13 4.5 13C3.93438 13 3.41875 13.1937 3 13.5125V11H2V15.5C2 16.8813 3.11875 18 4.5 18C5.88125 18 7 16.8813 7 15.5C7 15.3281 6.98125 15.1625 6.95 15H13.05C13.0156 15.1625 13 15.3281 13 15.5C13 16.8813 14.1187 18 15.5 18C16.8813 18 18 16.8813 18 15.5C18 15.3281 17.9813 15.1625 17.95 15H19.75C19.8875 15 20 14.8875 20 14.75V14.25C20 14.1125 19.8875 14 19.75 14ZM4.5 17C3.67188 17 3 16.3281 3 15.5C3 14.6719 3.67188 14 4.5 14C5.32812 14 6 14.6719 6 15.5C6 16.3281 5.32812 17 4.5 17ZM13 7H14.3781C14.6406 7 14.9 7.10625 15.0844 7.29375L17.7062 9.91563C17.7312 9.94063 17.7406 9.975 17.7625 10.0031H13V7ZM15.5 17C14.6719 17 14 16.3281 14 15.5C14 14.6719 14.6719 14 15.5 14C16.3281 14 17 14.6719 17 15.5C17 16.3281 16.3281 17 15.5 17ZM18 14H17.4875C17.0312 13.3969 16.3125 13 15.5 13C14.6875 13 13.9688 13.3969 13.5125 14H13V11H18V14ZM8 9.75V9.25C8 9.1125 7.8875 9 7.75 9H0.25C0.1125 9 0 9.1125 0 9.25V9.75C0 9.8875 0.1125 10 0.25 10H7.75C7.8875 10 8 9.8875 8 9.75Z" fill="black" stroke="black" stroke-width="0.03125"/>
</g>
<defs>
<clipPath id="clip0_6_150">
<rect width="20" height="20" fill="white"/>
</clipPath>
</defs>
</svg>
