<svg width="12" height="10" viewBox="0 0 12 10" fill="none" xmlns="http://www.w3.org/2000/svg">
<path fill-rule="evenodd" clip-rule="evenodd" d="M12 0.72C11.9975 0.910183 11.9209 1.09188 11.7864 1.22637C11.6519 1.36086 11.4702 1.43751 11.28 1.44H0.72C0.529817 1.43751 0.348124 1.36086 0.213633 1.22637C0.0791416 1.09188 0.00248637 0.910183 0 0.72C0.00248637 0.529817 0.0791416 0.348124 0.213633 0.213633C0.348124 0.0791416 0.529817 0.00248637 0.72 0H11.28C11.4702 0.00248637 11.6519 0.0791416 11.7864 0.213633C11.9209 0.348124 11.9975 0.529817 12 0.72Z" fill="black"/>
<path fill-rule="evenodd" clip-rule="evenodd" d="M12 4.56009C11.9975 4.75027 11.9209 4.93196 11.7864 5.06646C11.6519 5.20095 11.4702 5.2776 11.28 5.28009H0.72C0.529817 5.2776 0.348124 5.20095 0.213633 5.06646C0.0791416 4.93196 0.00248637 4.75027 0 4.56009C0.00248637 4.36991 0.0791416 4.18821 0.213633 4.05372C0.348124 3.91923 0.529817 3.84257 0.72 3.84009H11.28C11.4702 3.84257 11.6519 3.91923 11.7864 4.05372C11.9209 4.18821 11.9975 4.36991 12 4.56009Z" fill="black"/>
<path fill-rule="evenodd" clip-rule="evenodd" d="M12 8.39993C11.9975 8.59011 11.9209 8.77181 11.7864 8.9063C11.6519 9.04079 11.4702 9.11745 11.28 9.11993H0.72C0.529817 9.11745 0.348124 9.04079 0.213633 8.9063C0.0791416 8.77181 0.00248637 8.59011 0 8.39993C0.00248637 8.20975 0.0791416 8.02806 0.213633 7.89356C0.348124 7.75907 0.529817 7.68242 0.72 7.67993H11.28C11.4702 7.68242 11.6519 7.75907 11.7864 7.89356C11.9209 8.02806 11.9975 8.20975 12 8.39993Z" fill="black"/>
</svg>
