<svg width="20" height="20" viewBox="0 0 20 20" fill="none" xmlns="http://www.w3.org/2000/svg">
<g opacity="0.969855" clip-path="url(#clip0_6_72)">
<path d="M19.7693 9.15383C17.8115 5.83154 14.1601 3.61108 10 3.61108C5.83821 3.61108 2.18766 5.8331 0.23078 9.15383C0.0796862 9.41022 0 9.70239 0 9.99999C0 10.2976 0.0796862 10.5898 0.23078 10.8462C2.18859 14.1684 5.83995 16.3889 10 16.3889C14.1618 16.3889 17.8124 14.1668 19.7693 10.8461C19.9203 10.5897 20 10.2976 20 9.99997C20 9.70238 19.9203 9.41021 19.7693 9.15383ZM10 14.7222C6.43904 14.7222 3.33019 12.8229 1.66668 9.99997C3.19991 7.39813 5.96102 5.58088 9.17231 5.31223C9.51245 5.6624 9.72224 6.1399 9.72224 6.66664C9.72224 7.74053 8.85168 8.61108 7.77779 8.61108C6.70391 8.61108 5.83335 7.74053 5.83335 6.66664L5.83338 6.66518C5.47898 7.32785 5.27779 8.08483 5.27779 8.88886C5.27779 11.4969 7.392 13.6111 10 13.6111C12.608 13.6111 14.7222 11.4969 14.7222 8.88886C14.7222 7.8114 14.3611 6.81841 13.7537 6.02376C15.6842 6.82768 17.292 8.23282 18.3334 9.99997C16.6699 12.8229 13.561 14.7222 10 14.7222Z" fill="black" stroke="black" stroke-width="0.0347222"/>
</g>
<defs>
<clipPath id="clip0_6_72">
<rect width="20" height="20" fill="white"/>
</clipPath>
</defs>
</svg>
