<svg width="19" height="18" viewBox="0 0 19 18" fill="none" xmlns="http://www.w3.org/2000/svg">
<path d="M17.625 5.9553L12.5521 5.21572L10.2847 0.618496C9.87849 -0.200949 8.70141 -0.211365 8.29168 0.618496L6.02432 5.21572L0.951405 5.9553C0.0416832 6.08725 -0.3229 7.20877 0.336822 7.85114L4.00696 11.4275L3.13891 16.4796C2.98266 17.3928 3.94446 18.0768 4.75002 17.6497L9.28821 15.2643L13.8264 17.6497C14.632 18.0734 15.5938 17.3928 15.4375 16.4796L14.5695 11.4275L18.2396 7.85114C18.8993 7.20877 18.5347 6.08725 17.625 5.9553ZM12.7813 10.8442L13.6042 15.6497L9.28821 13.3824L4.97224 15.6497L5.79516 10.8442L2.3021 7.44141L7.12849 6.74002L9.28821 2.36502L11.4479 6.74002L16.2743 7.44141L12.7813 10.8442Z" fill="#484848"/>
</svg>
