<svg width="20" height="20" viewBox="0 0 20 20" fill="none" xmlns="http://www.w3.org/2000/svg">
<path d="M8.90601 15H7.18726V1.875C7.18726 1.70924 7.12141 1.55027 7.0042 1.43306C6.88699 1.31585 6.72802 1.25 6.56226 1.25H5.93726C5.7715 1.25 5.61253 1.31585 5.49532 1.43306C5.37811 1.55027 5.31226 1.70924 5.31226 1.875V15H3.59351C3.50192 15 3.41232 15.0267 3.33578 15.0771C3.25924 15.1274 3.19912 15.199 3.16284 15.2831C3.12657 15.3672 3.11573 15.4601 3.13166 15.5503C3.14759 15.6405 3.1896 15.724 3.25249 15.7906L5.90874 18.6031C5.95255 18.6495 6.00536 18.6864 6.06393 18.7116C6.1225 18.7368 6.1856 18.7498 6.24937 18.7498C6.31314 18.7498 6.37624 18.7368 6.43481 18.7116C6.49338 18.6864 6.54618 18.6495 6.58999 18.6031L9.24624 15.7906C9.30909 15.7241 9.35109 15.6406 9.36704 15.5505C9.383 15.4604 9.37223 15.3675 9.33605 15.2835C9.29987 15.1994 9.23987 15.1277 9.16345 15.0774C9.08703 15.027 8.99754 15.0001 8.90601 15ZM16.7466 4.20938L14.0904 1.39687C14.0466 1.35053 13.9938 1.31362 13.9352 1.28839C13.8766 1.26316 13.8135 1.25015 13.7498 1.25015C13.686 1.25015 13.6229 1.26316 13.5643 1.28839C13.5057 1.31362 13.4529 1.35053 13.4091 1.39687L10.7529 4.20938C10.69 4.27594 10.648 4.35945 10.6321 4.44962C10.6161 4.53978 10.6269 4.63263 10.6632 4.71672C10.6994 4.80081 10.7594 4.87245 10.8359 4.92279C10.9124 4.97313 11.0019 4.99997 11.0935 5H12.8123V18.125C12.8123 18.2908 12.8781 18.4497 12.9953 18.5669C13.1125 18.6842 13.2715 18.75 13.4373 18.75H14.0623C14.228 18.75 14.387 18.6842 14.5042 18.5669C14.6214 18.4497 14.6873 18.2908 14.6873 18.125V5H16.406C16.4976 4.99997 16.5871 4.97313 16.6636 4.92279C16.7401 4.87245 16.8001 4.80081 16.8364 4.71672C16.8726 4.63263 16.8834 4.53978 16.8675 4.44962C16.8515 4.35945 16.8095 4.27594 16.7466 4.20938Z" fill="black"/>
</svg>
