<svg width="20" height="16" viewBox="0 0 20 16" fill="none" xmlns="http://www.w3.org/2000/svg">
<g clip-path="url(#clip0_6_156)">
<path d="M17.9219 5.76875L16.3406 1.025C16.1375 0.4125 15.5656 0 14.9187 0H5.08125C4.43437 0 3.8625 0.4125 3.65937 1.025L2.07812 5.76875C2.02812 5.92188 2 6.08125 2 6.24375V14.5C2 15.3281 2.67188 16 3.5 16H16.5C17.3281 16 18 15.3281 18 14.5V6.24375C18 6.08125 17.975 5.92188 17.9219 5.76875ZM3 6.24375C3 6.19063 3.00937 6.1375 3.025 6.08437L4.60625 1.34063C4.675 1.1375 4.86562 1 5.08125 1H9.5V6.25H3V6.24375ZM17 14.5C17 14.775 16.775 15 16.5 15H3.5C3.225 15 3 14.775 3 14.5V7.25H17V14.5ZM17 6.25H10.5V1H14.9187C15.1344 1 15.325 1.1375 15.3938 1.34063L16.975 6.08437C16.9906 6.13438 17 6.1875 17 6.24375V6.25Z" fill="black" stroke="black" stroke-width="0.03125"/>
</g>
<defs>
<clipPath id="clip0_6_156">
<rect width="20" height="16" fill="white"/>
</clipPath>
</defs>
</svg>
