<svg width="20" height="20" viewBox="0 0 20 20" fill="none" xmlns="http://www.w3.org/2000/svg">
<g clip-path="url(#clip0_6_139)">
<path d="M10 13.2812C9.39594 13.2812 8.90625 13.7709 8.90625 14.375C8.90625 14.9791 9.39594 15.4688 10 15.4688C10.6041 15.4688 11.0938 14.9791 11.0938 14.375C11.0938 13.7709 10.6041 13.2812 10 13.2812ZM10.2996 12.3438H9.67461C9.41574 12.3438 9.20586 12.1339 9.20586 11.875V11.8601C9.20586 9.11234 12.2309 9.375 12.2309 7.66449C12.2309 6.88262 11.5371 6.09375 9.98711 6.09375C8.84867 6.09375 8.25801 6.47066 7.67418 7.21453C7.52152 7.40906 7.24238 7.44871 7.03949 7.30734L6.52645 6.94992C6.30672 6.79684 6.25848 6.49012 6.42313 6.27894C7.25227 5.21539 8.23602 4.53125 9.98711 4.53125C12.0309 4.53125 13.7934 5.6934 13.7934 7.66449C13.7934 10.2979 10.7684 10.1586 10.7684 11.8601V11.875C10.7684 12.1339 10.5585 12.3438 10.2996 12.3438ZM10 1.5625C14.6336 1.5625 18.4375 5.31543 18.4375 10C18.4375 14.6598 14.6637 18.4375 10 18.4375C5.34203 18.4375 1.5625 14.6655 1.5625 10C1.5625 5.34363 5.33602 1.5625 10 1.5625ZM10 0.3125C4.65012 0.3125 0.3125 4.65168 0.3125 10C0.3125 15.3514 4.65012 19.6875 10 19.6875C15.3499 19.6875 19.6875 15.3514 19.6875 10C19.6875 4.65168 15.3499 0.3125 10 0.3125Z" fill="black" stroke="black" stroke-width="0.0390625"/>
</g>
<defs>
<clipPath id="clip0_6_139">
<rect width="20" height="20" fill="white"/>
</clipPath>
</defs>
</svg>
