<svg width="10" height="10" viewBox="0 0 10 10" fill="none" xmlns="http://www.w3.org/2000/svg">
<path d="M8.82422 3.94922H5.07422V0.199219C5.07422 0.095625 4.99031 0.0117188 4.88672 0.0117188H4.13672C4.03312 0.0117188 3.94922 0.095625 3.94922 0.199219V3.94922H0.199219C0.095625 3.94922 0.0117188 4.03312 0.0117188 4.13672V4.88672C0.0117188 4.99031 0.095625 5.07422 0.199219 5.07422H3.94922V8.82422C3.94922 8.92781 4.03312 9.01172 4.13672 9.01172H4.88672C4.99031 9.01172 5.07422 8.92781 5.07422 8.82422V5.07422H8.82422C8.92781 5.07422 9.01172 4.99031 9.01172 4.88672V4.13672C9.01172 4.03312 8.92781 3.94922 8.82422 3.94922Z" fill="black" stroke="black" stroke-width="0.0234375"/>
</svg>
