<?xml version="1.0" encoding="UTF-8"?>
<svg xmlns="http://www.w3.org/2000/svg" version="1.1" viewBox="0 0 403.3 251.1">
  <defs>
    <style>
      .cls-1 {
        fill: #484848;
      }
    </style>
  </defs>
  <!-- Generator: Adobe Illustrator 28.6.0, SVG Export Plug-In . SVG Version: 1.2.0 Build 709)  -->
  <g>
    <g id="Layer_1">
      <g id="Layer_1-2" data-name="Layer_1">
        <g>
          <path class="cls-1" d="M37.8,239.5l-.4.9h0l.4-.9ZM21.4,226.4l.8-.6-.8.6ZM15.4,206.7v-1h-1v1h1ZM38.2,206.7h1v-1h-.9v1h-.1ZM44.8,220.6l-.7.7h0l.7-.7ZM78.6,220.8l.6.8h0l-.7-.8h0ZM80.9,196.3l-.7.7h0l.7-.7ZM71.3,189.9l-.4.9h0l.4-.9ZM55.6,185l-.3,1h0l.3-1ZM34.9,178.3l-.4.9h0l.4-.9ZM21.4,128.4l.8.6-.8-.6ZM37.1,115.5l.4.9-.4-.9ZM91.3,120.5l-.6.8h0l.6-.8ZM104.8,146.3v1h1.1v-1.1h-1.1ZM81.2,146.3h-1v1h.9v-1h0ZM43.3,133.8l.6.8h0l-.6-.8ZM41,157.2l-.7.7h0l.7-.7ZM50.4,163.2l.4-.9-.4.9ZM65.7,168l.3-1h0l-.3,1ZM86.6,175.1l-.4.9h0l.4-.9ZM100.5,186.2l-.8.6h0l.8-.6ZM100.9,224.5l-.9-.5h0l.9.5ZM85.3,238.7l.5.9h0l-.5-.9ZM61.4,242.9c-8.6,0-16.3-1.5-23.2-4.4l-.8,1.8c7.1,3.1,15.1,4.6,24,4.6v-2h0ZM38.3,238.5c-6.8-3.1-12.2-7.3-16-12.8l-1.6,1.2c4.1,5.8,9.7,10.2,16.9,13.4l.8-1.8h0ZM22.2,225.8c-3.9-5.4-5.8-11.8-5.8-19.1h-2c0,7.7,2,14.4,6.2,20.2l1.6-1.2h0ZM15.4,207.7h22.8v-2H15.4v2ZM37.2,206.8c.5,5.8,2.8,10.7,6.9,14.5l1.4-1.5c-3.7-3.4-5.8-7.8-6.2-13.2l-2,.2h-.1ZM44.1,221.3c4.2,3.8,10,5.7,17.3,5.7v-2c-6.9,0-12.2-1.8-16-5.2l-1.3,1.5ZM61.4,227c7.5,0,13.5-1.8,17.9-5.5l-1.3-1.5c-3.9,3.3-9.4,5-16.6,5,0,0,0,2,0,2ZM79.3,221.5c4.3-3.8,6.5-8.7,6.5-14.6h-2c0,5.3-1.9,9.7-5.8,13.1l1.3,1.5ZM85.8,206.9c0-4.6-1.4-8.4-4.2-11.3l-1.4,1.4c2.4,2.5,3.7,5.8,3.7,10h2,0ZM81.6,195.6c-2.6-2.9-5.9-5.1-9.9-6.6l-.7,1.9c3.7,1.4,6.8,3.5,9.2,6.1l1.5-1.3h0ZM71.7,189c-3.8-1.5-9.1-3.2-15.8-4.9l-.5,1.9c6.7,1.7,11.9,3.3,15.6,4.8l.7-1.9h0ZM55.9,184.1c-8.5-2.2-15.3-4.5-20.6-6.7l-.8,1.8c5.4,2.3,12.4,4.5,20.9,6.8l.5-1.9h0ZM35.3,177.4c-5.1-2.3-9.4-5.8-13.1-10.5l-1.6,1.2c3.8,5,8.4,8.7,13.8,11.1l.8-1.8h.1ZM22.2,166.9c-3.6-4.6-5.4-10.9-5.4-18.8h-2c0,8.3,1.9,15,5.8,20.1l1.6-1.2h0ZM16.8,148c0-7.3,1.8-13.7,5.4-19.1l-1.7-1.1c-3.9,5.8-5.8,12.5-5.8,20.2h2.1ZM22.2,128.9c3.6-5.4,8.7-9.6,15.3-12.5l-.8-1.8c-6.9,3.1-12.3,7.5-16.1,13.3l1.7,1.1h-.1ZM37.5,116.4c6.6-2.9,14.2-4.4,23-4.4v-2c-9,0-16.9,1.5-23.8,4.6,0,0,.8,1.8.8,1.8ZM60.5,112c12.4,0,22.5,3.1,30.2,9.3l1.2-1.6c-8.2-6.5-18.7-9.8-31.5-9.8v2h0ZM90.7,121.3c7.9,6,12.2,14.4,13.1,25.1l2-.2c-.9-11.2-5.5-20.1-13.9-26.5,0,0-1.2,1.6-1.2,1.6ZM104.8,145.3h-23.6v2h23.6v-2ZM82.2,146.3c-.4-5-2.8-9.3-7.1-12.8l-1.3,1.5c3.9,3.2,6,7,6.4,11.5l2-.2ZM75.1,133.4c-4.3-3.5-10-5.3-16.9-5.3v2c6.6,0,11.7,1.6,15.6,4.8,0,0,1.3-1.5,1.3-1.5ZM58.2,128.1c-6.3,0-11.5,1.6-15.6,4.9l1.3,1.6c3.6-2.9,8.4-4.5,14.3-4.5v-2ZM42.6,133c-4.1,3.3-6.2,8.1-6.2,14.2h2c0-5.6,1.8-9.8,5.4-12.7l-1.3-1.6h0ZM36.5,147.3c0,4.2,1.3,7.8,3.8,10.6l1.5-1.3c-2.2-2.4-3.3-5.5-3.3-9.2h-2ZM40.3,157.9c2.6,2.6,5.8,4.7,9.7,6.2l.7-1.9c-3.6-1.5-6.6-3.4-9-5.8l-1.4,1.4h0ZM50,164.1c3.8,1.5,8.9,3.1,15.4,4.9l.5-1.9c-6.5-1.7-11.5-3.3-15.2-4.8l-.7,1.9h0ZM65.4,169c8.6,2.4,15.5,4.7,20.8,7.1l.8-1.8c-5.4-2.4-12.5-4.8-21.1-7.2,0,0-.5,1.9-.5,1.9ZM86.3,176c5.3,2.3,9.8,5.9,13.4,10.7l1.6-1.2c-3.8-5.1-8.6-8.9-14.2-11.4l-.8,1.8h0ZM99.7,186.8c3.7,4.6,5.6,10.9,5.6,19h2c0-8.4-2-15.2-6-20.3l-1.6,1.2h0ZM105.3,205.8c0,6.4-1.8,12.5-5.3,18.2l1.7,1.1c3.7-6,5.6-12.4,5.6-19.2h-2,0ZM100,224c-3.4,5.7-8.4,10.3-15.1,13.8l.9,1.8c7-3.7,12.3-8.5,15.9-14.6,0,0-1.7-1-1.7-1ZM84.9,237.8c-6.6,3.4-14.4,5.1-23.5,5.1v2c9.4,0,17.5-1.8,24.4-5.3l-.9-1.8ZM199.5,216.1l.9-.3-.2-.7h-.7v1ZM145.1,216.1v-1h-.7l-.2.7.9.3ZM135.7,242.6v1h.7l.2-.7s-.9-.3-.9-.3ZM113.5,242.6l-.9-.3-.5,1.3h1.4v-1ZM160.1,112.5v-1h-.7l-.2.7.9.3ZM184.7,112.5l.9-.3-.2-.7h-.7v1ZM231.3,242.6v1h1.4l-.5-1.3-.9.3ZM208.9,242.6l-.9.3.2.7h.7v-1ZM193.5,198.7v1h1.4l-.5-1.3-.9.3ZM172.4,138.3l.9-.3-.9-2.7-.9,2.7.9.3ZM151.1,198.7l-.9-.3-.5,1.3h1.4v-1ZM199.5,215.1h-54.4v2h54.4v-2ZM144.1,215.7l-9.4,26.6,1.9.7,9.4-26.6-1.9-.7ZM135.7,241.6h-22.3v2h22.3s0-2,0-2ZM114.4,243l46.6-130.2-1.9-.7-46.6,130.2,1.9.7ZM160.1,113.5h24.7v-2h-24.7v2ZM183.8,112.8l46.6,130.2,1.9-.7-46.6-130.2-1.9.7h0ZM231.3,241.6h-22.4v2h22.4v-2ZM209.8,242.3l-9.4-26.6-1.9.7,9.4,26.6,1.9-.7ZM194.5,198.4l-21.1-60.4-1.9.7,21.1,60.4,1.9-.7h0ZM171.4,138l-21.3,60.4,1.9.7,21.3-60.4-1.9-.7ZM151.1,199.7h42.4v-2h-42.4v2ZM262.6,225.4h-1v1h1v-1ZM306.5,225.4h1v-1h-1v1ZM306.5,242.6v1h1v-1h-1ZM241.3,242.6h-1v1h1v-1ZM241.3,112.7v-1h-1v1h1ZM262.6,112.7h1v-1h-1v1ZM262.6,226.4h43.9v-2h-43.9v2ZM305.5,225.4v17.2h2v-17.2h-2ZM306.5,241.6h-65.3v2h65.3v-2ZM242.3,242.6V112.7h-2v130h2ZM241.3,113.7h21.3v-2h-21.3v2ZM261.6,112.7v112.8h2v-112.8s-2,0-2,0ZM335.4,129.9v-1h-1v1h1ZM335.4,168h-1v1h1v-1ZM380.3,168h1v-1h-1v1ZM380.3,185.4v1h1v-1h-1ZM335.4,185.4v-1h-1v1h1ZM335.4,225.2h-1v1h1v-1ZM385.9,225.2h1v-1h-1v1ZM385.9,242.6v1h1v-1h-1ZM314.1,242.6h-1v1h1v-1ZM314.1,112.5v-1h-1v1h1ZM385.9,112.5h1v-1h-1v1ZM385.9,129.9v1h1v-1h-1ZM334.4,129.9v38.1h2v-38.1h-2ZM335.4,169h44.9v-2h-44.9v2ZM379.3,168v17.4h2v-17.4h-2ZM380.3,184.4h-44.9v2h44.9v-2ZM334.4,185.4v39.8h2v-39.8h-2ZM335.4,226.2h50.5v-2h-50.5v2ZM384.9,225.2v17.4h2v-17.4h-2ZM385.9,241.6h-71.8v2h71.8v-2ZM315.1,242.6V112.5h-2v130.2h2ZM314.1,113.5h71.8v-2h-71.8v2ZM384.9,112.5v17.4h2v-17.4h-2ZM385.9,128.9h-50.5v2h50.5v-2Z"/>
          <path class="cls-1" d="M20.5,6.3v40.3c0,4.8,1.2,8.4,3.7,10.8,2.5,2.4,6.1,3.6,10.6,3.6s8.1-1.2,10.6-3.6c2.5-2.4,3.8-6,3.8-10.8V6.3h10.4v40.1c0,5.2-1.1,9.5-3.4,13.1-2.2,3.6-5.2,6.2-9,8s-7.9,2.6-12.5,2.6-8.7-.9-12.5-2.6c-3.7-1.8-6.6-4.4-8.8-8-2.2-3.6-3.3-7.9-3.3-13.1V6.3h10.4ZM79.8,61.3h21.4v8.4h-31.8V6.3h10.4v54.9h0ZM147,6.3v8.5h-16.8v54.8h-10.4V14.9h-16.9V6.3h44.1ZM164.3,6.3v63.2h-10.4V6.3h10.4ZM240.9,6.3v63.2h-10.4V26.3l-19.3,43.3h-7.2l-19.4-43.3v43.3h-10.4V6.3h11.2l22.2,49.6,22.2-49.6h11.1ZM289,56.7h-26.5l-4.5,12.9h-10.8l22.6-63.3h12l22.7,63.3h-10.9l-4.5-12.9h-.1ZM286.1,48.3l-10.3-29.4-10.4,29.4h20.7,0ZM351.5,6.3v8.5h-16.8v54.8h-10.4V14.9h-16.9V6.3h44.1,0ZM368.8,14.8v18.6h21.8v8.5h-21.8v19.4h24.6v8.5h-34.9V6.3h34.9v8.5h-24.6Z"/>
        </g>
      </g>
    </g>
  </g>
</svg>