<svg width="36" height="36" viewBox="0 0 36 36" fill="none" xmlns="http://www.w3.org/2000/svg">
<path d="M18.2303 0C19.3939 0 20.6869 0 21.8505 0.385714L18.2303 7.45714C12.8 7.07143 8.01616 11.4429 7.62828 17.1C7.3697 22.7571 11.5071 27.6429 17.0667 27.9H18.2303C20.6869 27.9 23.0141 27 24.8242 25.4571L28.703 32.2714C25.7293 34.4571 22.1091 35.7429 18.101 35.7429C8.53333 36 0.387879 28.6714 -2.29571e-07 18.6429C-0.258586 8.74286 6.98182 0.385714 16.6788 0H18.2303Z" fill="#1D1D1B"/>
<path d="M22.1091 15.2998L17.5839 23.0141H26.3758L30.5132 30.4712L35.0384 23.0141L30.5132 15.2998H22.1091Z" fill="#1D1D1B"/>
<path d="M23.2727 12.4714C23.2727 11.1856 23.5313 10.0285 24.1778 8.99993C24.8242 8.09993 25.9879 7.07136 26.8929 6.55707L27.5394 6.17136C28.703 5.5285 29.0909 5.27136 29.0909 4.6285C29.0909 3.98564 28.1858 3.34279 27.5394 3.34279C26.3757 3.34279 25.3414 3.98564 24.8242 5.27136L23.2727 3.85707C23.5313 3.21422 24.1778 2.57136 24.8242 1.9285C25.7293 1.28564 26.6343 1.28564 27.5394 1.28564C28.4444 1.28564 29.7374 1.67136 30.2545 2.18564C30.7717 2.8285 31.4182 3.7285 31.4182 4.6285C31.4182 6.17136 30.5131 7.45707 28.703 8.09993L27.798 8.74279C26.8929 9.38564 26.2464 9.64279 25.9879 10.6714H31.4182V12.8571C31.4182 12.7285 23.2727 12.4714 23.2727 12.4714Z" fill="#1D1D1B"/>
</svg>
