<svg width="138" height="53" viewBox="0 0 138 53" fill="none" xmlns="http://www.w3.org/2000/svg">
<path d="M22.0636 9.85874C21.5972 9.46734 21.1309 9.46734 20.5869 9.93701C18.0221 10.8764 13.2033 14.1645 12.0375 13.9297C13.9806 11.2679 16.079 8.68445 18.4884 6.33585C19.4988 4.92669 18.1775 4.61354 18.0221 3.83068C17.7112 2.81295 17.8666 1.71694 18.1775 0.777503C18.6439 -0.00536322 17.7112 -0.161936 17.1671 0.15121C10.8717 6.72728 5.50893 13.3034 0.534762 19.9577C-0.242453 20.9754 -0.0870095 21.7583 0.45704 22.3846L3.09956 25.7509C3.64362 26.6904 4.49855 26.8469 5.58665 26.1424L13.9029 20.5057C10.5609 25.9858 7.37424 32.1704 4.96488 39.6859C3.87678 42.8957 6.90792 47.7494 11.0272 52.838C11.4935 53.3861 12.4261 52.838 11.8043 51.7421C7.84057 44.3049 11.1049 32.7967 23.8511 15.8085C24.4729 15.104 24.7061 14.3993 24.2398 13.6948L22.0636 9.85874Z" fill="#1D1D1B"/>
<path d="M54.8615 19.644L55.9496 15.4165C56.1828 14.7903 56.6491 14.4771 57.2709 14.3989H61.0015H62.0896L62.7114 12.4417H61.0792L55.9496 12.5199C54.8615 12.4417 54.0066 12.8331 53.4626 14.0857L50.6645 25.0458L49.5765 29.3516C49.2656 30.291 49.4987 31.0739 50.6645 31.387C50.7423 31.387 50.8977 31.4653 50.9755 31.4653H57.504L58.0481 29.5082H53.0739C52.6853 29.1949 52.3744 29.195 52.5299 28.2555L53.6957 23.6367C53.8512 23.0886 54.162 22.6972 54.7061 22.6972H58.5145L59.0585 21.0532H55.1724C54.7061 20.74 54.6283 20.2703 54.8615 19.644Z" fill="#1D1D1B"/>
<path d="M62.5556 28.2564C65.1205 18.1574 63.566 24.1855 65.8976 15.4173C66.1308 14.791 66.5971 14.4779 67.2189 14.3996H70.7164H71.9599L72.4262 12.8339L72.5817 12.3642H72.4262H70.7164H65.82C64.7318 12.2859 63.7992 12.6773 63.3329 13.9299L61.0012 23.0894L59.4468 29.1176C59.1359 30.2135 59.3691 30.9964 60.8457 31.2313H60.9235H67.3744L67.9184 29.2741H62.9443C62.7111 29.2741 62.4001 29.1958 62.5556 28.2564Z" fill="#1D1D1B"/>
<path d="M37.5303 22.3062L33.7996 19.0182C33.0224 18.0788 33.7996 14.5559 35.4318 14.4776H39.551H40.95L41.4163 12.5988H39.551H34.4214C32.2452 12.9902 30.4576 17.5308 31.3126 19.7227L35.1209 23.1674C35.6649 23.7937 35.7427 24.3417 35.7427 24.968L34.6546 28.7258C34.4214 29.6652 33.7996 29.6652 33.0224 29.6652H27.8928L27.4264 31.4658H34.9654C36.1312 31.3875 36.8307 30.6829 36.9862 29.5086L38.2298 24.7331C38.5406 23.6372 38.152 22.8543 37.5303 22.3062Z" fill="#1D1D1B"/>
<path d="M50.1202 21.7581L50.6643 19.4877L51.8301 14.7123C51.9855 13.4597 51.5969 12.7551 50.6643 12.5985C50.5088 12.5203 50.3533 12.5203 50.198 12.5203H42.8144L39.6278 24.4981L37.7625 31.4656H39.6278H40.3273L44.9129 14.4774H47.944C48.5657 14.634 48.9544 14.9471 48.9544 15.5734L47.7108 20.7403C47.5554 21.6015 47.0113 22.1495 46.0787 22.4626L43.7471 22.9324L43.3584 24.733L48.4104 23.7935C49.2652 23.5587 49.9648 22.9324 50.1202 21.7581Z" fill="#1D1D1B"/>
<path d="M77.0124 12.5203H73.9813L72.4269 18.2352L70.717 24.5764L68.8517 31.4656H70.717H71.8828L72.4269 29.3518L77.0124 12.5203Z" fill="#1D1D1B"/>
<path d="M103.904 12.5203H102.038H100.95L95.743 31.4656H98.7746L102.038 19.5661L103.904 12.5203Z" fill="#1D1D1B"/>
<path d="M117.194 23.6375C117.349 23.0894 117.66 22.698 118.204 22.698H122.012L122.557 21.054H118.593C118.127 20.7408 118.049 20.2712 118.282 19.6449L119.448 15.4173C119.681 14.791 120.147 14.4779 120.769 14.3996H124.189H125.588L125.976 13.1471L126.209 12.3642H125.976H124.267H119.526C118.438 12.2859 117.505 12.6773 117.038 13.9299L114.24 24.89L113.153 29.1958C112.842 30.1353 113.075 30.9182 114.24 31.2313C114.318 31.2313 114.473 31.3096 114.551 31.3096H121.08L121.624 29.3524H116.572C116.183 29.0392 115.872 29.0392 116.028 28.0998L117.194 23.6375Z" fill="#1D1D1B"/>
<path d="M136.314 12.5203H127.376L125.9 17.8438L124.19 24.1849L122.247 31.3873H124.19H125.9H131.34C132.661 31.309 133.438 30.6045 133.749 29.2736L137.791 14.1642C137.947 13.2248 137.403 12.5985 136.314 12.5203ZM134.527 15.9648L131.185 27.7079C131.107 28.6473 130.485 29.2736 129.242 29.3518H126.055C125.978 29.3518 125.9 29.3518 125.822 29.2736C125.511 29.117 125.511 28.7255 125.667 28.3341L125.822 27.7861L129.786 14.2426H133.672C134.682 14.3208 134.838 14.9471 134.527 15.9648Z" fill="#1D1D1B"/>
<path d="M104.525 28.0211L114.085 15.7302L114.784 14.7907C115.639 13.5382 115.328 12.5988 114.085 12.5988C114.085 12.5988 114.085 12.5988 114.007 12.5988H105.302L105.225 14.321H110.587C111.287 14.321 111.676 14.6341 111.209 15.2604L102.038 27.3949L100.484 29.4303C99.862 30.3697 100.095 31.0744 101.183 31.544H102.038H110.665L111.209 29.4303H104.681C104.059 29.2738 103.981 28.4909 104.525 28.0211Z" fill="#1D1D1B"/>
<path d="M82.2972 12.5985L72.4266 31.2308L72.2711 31.5439H72.4266H74.6028L82.375 16.6695L83.0744 16.7477L83.4631 20.8969C83.7739 21.9146 83.0744 21.8363 82.8413 21.8363H80.6651L80.2764 23.402L82.8413 23.4804C83.3076 23.5587 83.5408 23.7935 83.4631 24.2632L83.9294 31.309H86.5719L85.4838 12.5203L82.2972 12.5985Z" fill="#1D1D1B"/>
<path d="M90.6135 28.021L94.8102 12.5203H91.7795L87.2715 29.1953C87.1937 30.1347 87.5823 31.1524 88.8256 31.4656H94.8102L95.4321 29.4302L91.1576 29.3518C90.6135 29.2736 90.3803 28.8039 90.6135 28.021Z" fill="#1D1D1B"/>
</svg>
